# xmcd
#
# Track frame offsets: 
#        150
#        8517
#        23648
#        34996
#        52047
#        66495
#        82974
#        103775
#        116778
#        132036
#        142589
#        153890
#        167088
#        184002
#        199471
#
# Disc length: 2855 seconds
#
# Revision: 0
# Processed by: cddbd v1.5.2PL0 Copyright (c) Steve Scherf et al.
# Submitted via: ExactAudioCopy v1.0b1
#
DISCID=c30b250f
DTITLE=Various Artist - La Belle Musique - Trilogie Francaise
DYEAR=2006
DGENRE=Chanson
TTITLE0=Francoise Hardy - Le Premier Bobheur Du Jour
TTITLE1=Sheila - Les Rois Mages
TTITLE2=France Gall - Popuee De Cire, Poupee De Son
TTITLE3=Richard Anthony - Maggie May
TTITLE4=Michel Polnareff - La Poupee Qui Fait Non
TTITLE5=Jean Francois Michel - Aux Jeunes Loupes
TTITLE6=Stephanie - Ouragan
TTITLE7=Patrick Jouvet - La Musica
TTITLE8=Michel Delpech - Pour Un Flirt
TTITLE9=Jacques Dutrone - J'ai Mis Un Tigre Dans Ma Guitarre
TTITLE10=Brigitte Bardot - Oh Qu'il Est Vilain
TTITLE11=Antoinette - Elucubration D'Antoine
TTITLE12=Spagna - Comme'Est Bizarre La Vie
TTITLE13=Jean Francois Michael - Un P'tit Pue De Toi
TTITLE14=Richard Anthony - Le Sorcier Du Flipper
EXTD=
EXTT0=
EXTT1=
EXTT2=
EXTT3=
EXTT4=
EXTT5=
EXTT6=
EXTT7=
EXTT8=
EXTT9=
EXTT10=
EXTT11=
EXTT12=
EXTT13=
EXTT14=
PLAYORDER=
